<?xml version="1.0" encoding="UTF-8" standalone="no"?>
<svg
   inkscape:version="1.1.2 (0a00cf5339, 2022-02-04, custom)"
   sodipodi:docname="notification-audio-volume-low.svg"
   id="svg65"
   version="1"
   height="48"
   width="48"
   xmlns:inkscape="http://www.inkscape.org/namespaces/inkscape"
   xmlns:sodipodi="http://sodipodi.sourceforge.net/DTD/sodipodi-0.dtd"
   xmlns="http://www.w3.org/2000/svg"
   xmlns:svg="http://www.w3.org/2000/svg"
   xmlns:rdf="http://www.w3.org/1999/02/22-rdf-syntax-ns#"
   xmlns:cc="http://creativecommons.org/ns#"
   xmlns:dc="http://purl.org/dc/elements/1.1/">
  <metadata
     id="metadata71">
    <rdf:RDF>
      <cc:Work
         rdf:about="">
        <dc:format>image/svg+xml</dc:format>
        <dc:type
           rdf:resource="http://purl.org/dc/dcmitype/StillImage" />
      </cc:Work>
    </rdf:RDF>
  </metadata>
  <defs
     id="defs69" />
  <sodipodi:namedview
     inkscape:current-layer="svg65"
     inkscape:window-maximized="1"
     inkscape:window-y="0"
     inkscape:window-x="0"
     inkscape:cy="24.000001"
     inkscape:cx="18.253012"
     inkscape:zoom="13.833333"
     showgrid="false"
     id="namedview67"
     inkscape:window-height="940"
     inkscape:window-width="1374"
     inkscape:pageshadow="2"
     inkscape:pageopacity="0"
     guidetolerance="10"
     gridtolerance="10"
     objecttolerance="10"
     borderopacity="1"
     bordercolor="#666666"
     pagecolor="#ffffff"
     inkscape:pagecheckerboard="0" />
  <path
     style="fill:#c4a7e7;fill-opacity:1"
     id="path55"
     d="m29 4v4c6.3273 2.1143 11 8.6571 11 16s-4.6727 13.886-11 16v4c8.591-2.229 15-10.286 15-20s-6.409-17.771-15-20z"
     opacity=".2"
     fill="#e4e4e4" />
  <path
     style="fill:#c4a7e7;fill-opacity:1"
     id="path57"
     d="m4 14v20h9.0912l10.909 10v-40l-10.909 10z"
     fill="#e4e4e4" />
  <path
     style="fill:#c4a7e7;fill-opacity:1"
     id="path59"
     d="m34 24c0-3.9-2.011-7.26-5-9v18c2.9609-1.74 5-5.1 5-9z"
     opacity=".2"
     fill="#e4e4e4" />
  <path
     style="fill:#c4a7e7;fill-opacity:1"
     id="path61"
     d="m4 34v1h9.0918l10.908 10v-1l-10.908-10h-9.092z"
     opacity=".2" />
  <path
     id="path63"
     d="m24 4-10.908 10h-9.092v1h9.092l10.908-10v-1z"
     opacity=".2"
     fill="#fff" />
</svg>
